<?xml version="1.0" encoding="UTF-8" standalone="no"?>
<!-- Generator: Adobe Illustrator 20.1.0, SVG Export Plug-In . SVG Version: 6.00 Build 0)  -->

<svg
   version="1.1"
   id="Pokéball"
   x="0px"
   y="0px"
   viewBox="0 0 339.70002 511.50003"
   xml:space="preserve"
   sodipodi:docname="pokeball-top.svg"
   inkscape:version="1.1 (c68e22c387, 2021-05-23)"
   width="339.70001"
   height="511.5"
   xmlns:inkscape="http://www.inkscape.org/namespaces/inkscape"
   xmlns:sodipodi="http://sodipodi.sourceforge.net/DTD/sodipodi-0.dtd"
   xmlns="http://www.w3.org/2000/svg"
   xmlns:svg="http://www.w3.org/2000/svg"><defs
   id="defs37" /><sodipodi:namedview
   id="namedview35"
   pagecolor="#505050"
   bordercolor="#eeeeee"
   borderopacity="1"
   inkscape:pageshadow="0"
   inkscape:pageopacity="0"
   inkscape:pagecheckerboard="true"
   showgrid="false"
   inkscape:showpageshadow="false"
   inkscape:object-paths="true"
   inkscape:snap-intersection-paths="true"
   showguides="true"
   inkscape:guide-bbox="true"
   inkscape:zoom="0.54271593"
   inkscape:cx="428.61833"
   inkscape:cy="96.860525"
   inkscape:window-width="1920"
   inkscape:window-height="1017"
   inkscape:window-x="-8"
   inkscape:window-y="-8"
   inkscape:window-maximized="1"
   inkscape:current-layer="Pokéball_1_"
   fit-margin-top="0"
   fit-margin-left="0"
   fit-margin-right="0"
   fit-margin-bottom="0"
   inkscape:rotation="-1" />
<style
   type="text/css"
   id="style24">
	.st0{fill:#FFFFFF;}
	.st1{fill:#DFDFDF;}
	.st2{fill:#FF1C1C;}
	.st3{fill:#DF1818;}
</style>
<g
   id="Pokéball_1_"
   transform="translate(-127.8,44.6)">
	<g
   id="Colours"
   transform="rotate(-90,297.65,211.15)">
		
		
		<path
   id="Center"
   class="st0"
   d="m 347.1,297 v 0 c -0.1,0 -0.1,0 0,0 -0.1,-6.1 -1.2,-11.9 -3.2,-17.3 -7,-18.8 -25.1,-32.1 -46.3,-32.1 -21.2,0 -39.3,13.4 -46.3,32.1 -2,5.4 -3.1,11.2 -3.1,17.3 0,0 0,0 0,0 h 0.1 c 0,0 0,0 0,0 0,6.1 1.1,11.9 3.1,17.3 7,18.8 25.1,32.1 46.3,32.1 21.2,0 39.3,-13.4 46.3,-32.1 2,-5.3 3.1,-11.2 3.1,-17.3 0,0 0,0 0,0 z" />
		<path
   id="Up"
   class="st2"
   d="m 297.7,213.2 c 40.4,0 74.1,28.6 82.1,66.6 H 514.2 C 504.7,169.2 412,82.5 299,82.5 186,82.5 93.4,169.2 83.9,279.7 h 131.7 c 8,-38 41.7,-66.5 82.1,-66.5 z" />
		<path
   id="Shadow_Up"
   class="st3"
   d="m 458.3,279.7 h 55.8 C 505.9,184.2 435.5,106.4 343.6,87.1 c 63.8,33.7 109.3,106.6 114.7,192.6 z" />
	</g>
	<path
   id="Line"
   d="M 169,209.8 C 169,96.8 255.7,4.1 366.2,-5.3 v 134.4 c -38,8 -66.6,41.7 -66.6,82.1 0,40.4 28.6,74.1 66.6,82.1 V 424.9 C 255.7,415.4 169,322.7 169,209.8 Z m 197.2,-44.9 c 5.4,-2 11.2,-3.1 17.3,-3.1 v 0 -0.1 0 c 6.1,0 11.9,1.1 17.3,3.1 18.8,7 32.1,25.1 32.1,46.3 0,21.2 -13.4,39.3 -32.1,46.3 -5.4,2 -11.2,3.1 -17.3,3.1 v 0 0.1 0 c -6.1,0 -11.9,-1.1 -17.3,-3.1 -18.8,-7 -32.1,-25.1 -32.1,-46.3 0,-21.2 13.4,-39.3 32.1,-46.3 z M 402.19657,-43.92691 C 396.0228,-44.37305 389.78803,-44.6 383.5,-44.6 c -141.3,0 -255.7,114.5 -255.7,255.8 0,141.2 114.5,255.7 255.7,255.7 6.08305,0 12.11655,-0.21251 18.09347,-0.63051 L 400.9,293.3 c 38,-8 66.6,-41.7 66.6,-82.1 0,-40.4 -28.6,-74.1 -66.6,-82.1 z"
   sodipodi:nodetypes="sccsccscsccscscsccscsccsssccscc" />
<path
   style="fill:none;stroke:#000000;stroke-width:1px;stroke-linecap:butt;stroke-linejoin:miter;stroke-opacity:1"
   d="M 400.89999,466.31705 Z"
   id="path947" /></g>
</svg>
